# xmcd
#
# Track frame offsets: 
#        150
#        31824
#        57050
#        81256
#        104223
#        147219
#        175553
#        205435
#        236367
#        253724
#
# Disc length: 3750 seconds
#
# Revision: 1
# Processed by: cddbd v1.5.2PL0 Copyright (c) Steve Scherf et al.
# Submitted via: ExactAudioCopy v1.0b3
#
DISCID=840ea40a
DTITLE=Jeff "Tain" Watts - Watts
DYEAR=2009
DGENRE=Jazz
TTITLE0=Return of the Jitney Man
TTITLE1=Brekky with Drecky
TTITLE2=Katrina James
TTITLE3=Owed...
TTITLE4=Dancin' 4 Chicken
TTITLE5=Wry Koln
TTITLE6=Dingle - Dangle
TTITLE7=Devil's Ring Tone: The Movie
TTITLE8=M'buzai
TTITLE9=The Devil's Ring Tone
EXTD=YEAR: 2009
EXTT0=
EXTT1=
EXTT2=
EXTT3=
EXTT4=
EXTT5=
EXTT6=
EXTT7=
EXTT8=
EXTT9=
PLAYORDER=
